<svg width="158" height="147" viewBox="0 0 158 147" fill="none" xmlns="http://www.w3.org/2000/svg">
<path d="M64.5295 146.239C62.5828 146.239 60.6495 145.729 58.9428 144.746L41.1602 134.218C38.5042 132.733 39.8002 132.207 40.6762 131.905C44.2175 130.665 44.9362 130.385 48.7162 128.238C49.1135 128.011 49.6335 128.091 50.0402 128.331L63.7015 136.438C64.1948 136.705 64.8948 136.705 65.3522 136.438L118.619 105.691C119.112 105.411 119.432 104.838 119.432 104.251V42.7849C119.432 42.1715 119.112 41.6249 118.608 41.3182L65.3628 10.5983C64.8695 10.3049 64.2162 10.3049 63.7228 10.5983L10.4883 41.3182C9.97226 41.6115 9.64427 42.1849 9.64427 42.7715V104.238C9.64427 104.825 9.96426 105.385 10.4709 105.665L25.0576 114.091C32.9776 118.051 37.8176 113.385 37.8176 108.691V48.0249C37.8176 47.1582 38.4975 46.4915 39.3642 46.4915H46.1109C46.9509 46.4915 47.6442 47.1582 47.6442 48.0249V108.718C47.6442 119.278 41.8842 125.345 31.8709 125.345C28.7909 125.345 26.3642 125.345 19.5909 122.011L5.6176 113.958C2.16428 111.958 0.0309448 108.225 0.0309448 104.238V42.7715C0.0309448 38.7715 2.16428 35.0382 5.6176 33.0649L58.9375 2.30495C62.3108 0.398288 66.7908 0.398288 70.1375 2.30495L123.391 33.0782C126.831 35.0649 128.977 38.7849 128.977 42.7849V104.251C128.977 108.238 126.831 111.958 123.391 113.958L70.1375 144.718C68.4308 145.705 66.4975 146.211 64.5242 146.211" fill="#689F63"/>
<path d="M80.9828 103.885C57.6762 103.885 52.7895 93.1861 52.7895 84.2128C52.7895 83.3594 53.4775 82.6794 54.3322 82.6794H61.2122C61.9722 82.6794 62.6122 83.2328 62.7322 83.9834C63.7722 90.9941 66.8655 94.5301 80.9588 94.5301C92.1854 94.5301 96.9588 91.9941 96.9588 86.0408C96.9588 82.6141 95.5988 80.0674 78.1588 78.3608C63.5722 76.9208 54.5589 73.7075 54.5589 62.0408C54.5589 51.2942 63.6255 44.8942 78.8121 44.8942C95.8654 44.8942 104.319 50.8142 105.385 63.5341C105.425 63.9741 105.265 64.4008 104.972 64.7208C104.679 65.0275 104.265 65.2141 103.839 65.2141H96.9188C96.1988 65.2141 95.5721 64.7075 95.4254 64.0141C93.7588 56.6408 89.7321 54.2808 78.7855 54.2808C66.5322 54.2808 65.1055 58.5475 65.1055 61.7475C65.1055 65.6275 66.7855 66.7608 83.3188 68.9475C99.6921 71.1208 107.465 74.1875 107.465 85.6941C107.465 97.2941 97.7854 103.947 80.9055 103.947M145.785 38.7609H147.572C149.039 38.7609 149.319 37.7342 149.319 37.1342C149.319 35.5609 148.239 35.5609 147.639 35.5609H145.799L145.785 38.7609ZM143.612 33.7209H147.572C148.932 33.7209 151.599 33.7209 151.599 36.7609C151.599 38.8809 150.239 39.3208 149.425 39.5875C151.012 39.6942 151.119 40.7342 151.332 42.2009C151.439 43.1209 151.612 44.7075 151.932 45.2408H149.492C149.425 44.7075 149.052 41.7742 149.052 41.6142C148.892 40.9609 148.665 40.6409 147.852 40.6409H145.839V45.2542H143.612V33.7209ZM138.852 39.4542C138.852 44.2275 142.705 48.0942 147.439 48.0942C152.212 48.0942 156.065 44.1475 156.065 39.4542C156.065 34.6675 152.159 30.8675 147.425 30.8675C142.759 30.8675 138.839 34.6142 138.839 39.4408M157.719 39.4808C157.719 45.1342 153.092 49.7475 147.452 49.7475C141.852 49.7475 137.185 45.1875 137.185 39.4808C137.185 33.6675 141.959 29.2142 147.452 29.2142C152.985 29.2142 157.705 33.6809 157.705 39.4808" fill="#689F63"/>
</svg>
